<svg width="512" height="512" viewBox="0 0 96 96" fill="none" xmlns="http://www.w3.org/2000/svg">
  <!-- Central hexagon -->
  <path d="M48 20L65.32 30V50L48 60L30.68 50V30L48 20Z" fill="#2B5D4F"/>
  <!-- Top-right hex -->
  <path d="M65.32 10L82.64 20V40L65.32 50L48 40V20L65.32 10Z" fill="#2B5D4F" opacity="0.55"/>
  <!-- Bottom-right hex -->
  <path d="M65.32 50L82.64 60V80L65.32 90L48 80V60L65.32 50Z" fill="#2B5D4F" opacity="0.25"/>
  <!-- Top-left hex -->
  <path d="M30.68 10L48 20V40L30.68 50L13.36 40V20L30.68 10Z" fill="#2B5D4F" opacity="0.40"/>
  <!-- Bottom-left hex -->
  <path d="M30.68 50L48 60V80L30.68 90L13.36 80V60L30.68 50Z" fill="#2B5D4F" opacity="0.15"/>
  <!-- Accent dot -->
  <circle cx="48" cy="40" r="3.5" fill="#D4785C"/>
</svg>
